{"title":"The Flintstones/The Flintstones In Viva Rock Vegas Double Featur","uid":9352867,"size":4028015632,"categoryP":"video","categoryS":"movies","magnet":"?xt=urn:btih:cf2e531a924f946bd15f697b396b7cf5d9edeec8&amp;dn=The+Flintstones%2FThe+Flintstones+In+Viva+Rock+Vegas+Double+Featur&amp;tr=udp%3A%2F%2Ftracker.openbittorrent.com%3A80&amp;tr=udp%3A%2F%2Fopen.demonii.com%3A1337&amp;tr=udp%3A%2F%2Ftracker.coppersurfer.tk%3A6969&amp;tr=udp%3A%2F%2Fexodus.desync.com%3A6969","seeders":0,"leechers":1,"uploader":"sonicx33","files":-1,"time":1387173184,"description":"The Flintstones (1994) \n\n\nStoryline\n\nThe Flintstones and the Rubbles are modern stone-age families. Fred and Barney work at Slate and Company, mining rock. Fred gives Barney some money so he and Betty can adopt a baby. When Fred and Barney take a test to determine who should become the new associate vice president, Barney returns the favor by switching his test answers for Fred's, whose answers aren't very good. Fred gets the executive position, but little realizes that he's being manipulated by Cliff Vandercave to be the fall guy for an embezzlement scheme. \n\n\nIncludes Directories Commentary for the first movie only\n\n\n\n\nFormat                                   : MPEG-4\nFormat profile                           : Base Media / Version 2\nCodec ID                                 : mp42\nFile size                                : 1.70 GiB\nDuration                                 : 1h 26mn\nOverall bit rate mode                    : Variable\nOverall bit rate                         : 2 806 Kbps\nEncoded date                             : UTC 2013-12-15 03:56:57\nTagged date                              : UTC 2013-12-15 05:29:25\nWriting application                      : HandBrake 0.9.9 2013052900\n\nVideo\nID                                       : 1\nFormat                                   : AVC\nFormat/Info                              : Advanced Video Codec\nFormat profile                           : &lt;a class=&quot;__cf_email__&quot; href=&quot;/cdn-cgi/l/email-protection&quot; data-cfemail=&quot;703d11191e303c445e40&quot;&gt;[email&amp;#160;protected]&lt;/a&gt;&lt;script data-cfhash='f9e31' type=&quot;text/javascript&quot;&gt;\n/* &lt;![CDATA[ */!function(){try{var t=&quot;currentScript&quot;in document?document.currentScript:function(){for(var t=document.getElementsByTagName(&quot;script&quot;),e=t.length;e--;)if(t[e].getAttribute(&quot;data-cfhash&quot;))return t[e]}();if(t&amp;&amp;t.previousSibling){var e,r,n,i,c=t.previousSibling,a=c.getAttribute(&quot;data-cfemail&quot;);if(a){for(e=&quot;&quot;,r=parseInt(a.substr(0,2),16),n=2;a.length-n;n+=2)i=parseInt(a.substr(n,2),16)^r,e+=String.fromCharCode(i);e=document.createTextNode(e),c.parentNode.replaceChild(e,c)}t.parentNode.removeChild(t);}}catch(u){}}()/* ]]&gt; */&lt;/script&gt;\nFormat settings, CABAC                   : Yes\nFormat settings, ReFrames                : 5 frames\nCodec ID                                 : avc1\nCodec ID/Info                            : Advanced Video Coding\nDuration                                 : 1h 26mn\nBit rate                                 : 2 475 Kbps\nWidth                                    : 720 pixels\nHeight                                   : 576 pixels\nDisplay aspect ratio                     : 16:9\nFrame rate mode                          : Constant\nFrame rate                               : 25.000 fps\nStandard                                 : PAL\nColor space                              : YUV\nChroma subsampling                       : 4:2:0\nBit depth                                : 8 bits\nScan type                                : Progressive\nBits/(Pixel*Frame)                       : 0.239\nStream size                              : 1.50 GiB (88%)\nWriting library                          : x264 core 130 r2273 b3065e6\n\nEncoded date                             : UTC 2013-12-15 03:56:57\nTagged date                              : UTC 2013-12-15 05:29:25\nColor primaries                          : BT.601 PAL\nTransfer characteristics                 : BT.709\nMatrix coefficients                      : BT.601\n\nAudio #1\nID                                       : 2\nFormat                                   : AAC\nFormat/Info                              : Advanced Audio Codec\nFormat profile                           : LC\nCodec ID                                 : 40\nDuration                                 : 1h 26mn\nBit rate mode                            : Variable\nBit rate                                 : 159 Kbps\nMaximum bit rate                         : 290 Kbps\nChannel(s)                               : 2 channels\nChannel positions                        : Front: L R\nSampling rate                            : 48.0 KHz\nCompression mode                         : Lossy\nStream size                              : 99.0 MiB (6%)\nLanguage                                 : English\nEncoded date                             : UTC 2013-12-15 03:56:57\nTagged date                              : UTC 2013-12-15 05:29:24\n\n &lt;a href=&quot;\nhttp://www.imdb.com/title/tt0109813/&quot; rel=&quot;nofollow&quot; target=&quot;_NEW&quot;&gt;\nhttp://www.imdb.com/title/tt0109813/&lt;/a&gt;\n\n\nThe Flintstones in Viva Rock Vegas (2000) \n\n\nFormat: Mp4\n\n\nStoryline\n\nThe Flintstones are at it again. The Flintstones and the Rubbles head for Rock Vegas with Fred hoping to court the lovely Wilma. Nothing will stand in the way of love, except for the conniving Chip Rockefeller who is the playboy born in Baysville but who has made it in the cutthroat town of Rock Vegas. Will Fred win Wilma's love?\n\n &lt;a href=&quot;\nhttp://www.imdb.com/title/tt0158622/&quot; rel=&quot;nofollow&quot; target=&quot;_NEW&quot;&gt;\nhttp://www.imdb.com/title/tt0158622/&lt;/a&gt;\n\n\n\n","torrent":{"xt":"urn:btih:cf2e531a924f946bd15f697b396b7cf5d9edeec8","amp;dn":"The+Flintstones%2FThe+Flintstones+In+Viva+Rock+Vegas+Double+Featur","amp;tr":["udp%3A%2F%2Ftracker.openbittorrent.com%3A80","udp%3A%2F%2Fopen.demonii.com%3A1337","udp%3A%2F%2Ftracker.coppersurfer.tk%3A6969","udp%3A%2F%2Fexodus.desync.com%3A6969"],"infoHash":"cf2e531a924f946bd15f697b396b7cf5d9edeec8","infoHashBuffer":{"type":"Buffer","data":[207,46,83,26,146,79,148,107,209,95,105,123,57,107,124,245,217,237,238,200]},"announce":[],"urlList":[]}}